<?xml version="1.0" encoding="UTF-8" standalone="no"?>
<svg
   xmlns:dc="http://purl.org/dc/elements/1.1/"
   xmlns:cc="http://creativecommons.org/ns#"
   xmlns:rdf="http://www.w3.org/1999/02/22-rdf-syntax-ns#"
   xmlns:svg="http://www.w3.org/2000/svg"
   xmlns="http://www.w3.org/2000/svg"
   xmlns:sodipodi="http://sodipodi.sourceforge.net/DTD/sodipodi-0.dtd"
   xmlns:inkscape="http://www.inkscape.org/namespaces/inkscape"
   height="48"
   viewBox="0 0 16.800001 24"
   width="33.600002"
   id="svg2"
   version="1.1"
   inkscape:version="0.91 r13725"
   sodipodi:docname="ic2.svg"
   style="fill:#000000;enable-background:new">
  <metadata
     id="metadata12">
    <rdf:RDF>
      <cc:Work
         rdf:about="">
        <dc:format>image/svg+xml</dc:format>
        <dc:type
           rdf:resource="http://purl.org/dc/dcmitype/StillImage" />
        <dc:title></dc:title>
      </cc:Work>
    </rdf:RDF>
  </metadata>
  <defs
     id="defs10">
    <filter
       style="color-interpolation-filters:sRGB"
       inkscape:label="Drop Shadow"
       id="filter5825">
      <feFlood
         flood-opacity="0.498039"
         flood-color="rgb(0,0,0)"
         result="flood"
         id="feFlood5827" />
      <feComposite
         in="flood"
         in2="SourceGraphic"
         operator="in"
         result="composite1"
         id="feComposite5829" />
      <feGaussianBlur
         in="composite1"
         stdDeviation="0.6"
         result="blur"
         id="feGaussianBlur5831" />
      <feOffset
         dx="1"
         dy="1"
         result="offset"
         id="feOffset5833" />
      <feComposite
         in="SourceGraphic"
         in2="offset"
         operator="over"
         result="composite2"
         id="feComposite5835" />
    </filter>
  </defs>
  <sodipodi:namedview
     pagecolor="#ffffff"
     bordercolor="#666666"
     borderopacity="1"
     objecttolerance="10"
     gridtolerance="10"
     guidetolerance="10"
     inkscape:pageopacity="0"
     inkscape:pageshadow="2"
     inkscape:window-width="1847"
     inkscape:window-height="1053"
     id="namedview8"
     showgrid="false"
     inkscape:zoom="15.250606"
     inkscape:cx="3.120809"
     inkscape:cy="31.490882"
     inkscape:window-x="73"
     inkscape:window-y="27"
     inkscape:window-maximized="1"
     inkscape:current-layer="layer2"
     fit-margin-top="0"
     fit-margin-left="0"
     fit-margin-right="0"
     fit-margin-bottom="0" />
  <path
     d="m 1.3830085,-1.999679 23.9999995,0 0,24 -23.9999995,0 z"
     id="path6"
     inkscape:connector-curvature="0"
     style="fill:none" />
  <g
     inkscape:groupmode="layer"
     id="layer2"
     inkscape:label="bottom"
     transform="translate(1.3830085,-1.999679)"
     style="display:inline">
    <path
       clip-path="none"
       d="m 7.0169917,3.9996789 c -3.8700001,0 -7.00000014,3.13 -7.00000014,7.0000001 0,5.25 7.00000014,12.999999 7.00000014,12.999999 0,0 7.0000003,-7.749999 7.0000003,-12.999999 0,-3.8700001 -3.130001,-7.0000001 -7.0000003,-7.0000001 z m -3.5898438,3.4267578 3.9023438,0 0,1.7851564 3.9013673,0 0,6.2480459 -7.8037111,0 0,-8.0332023 z m 0.7802733,0.8925779 0,0.8925785 0.78125,0 0,-0.8925785 -0.78125,0 z m 1.5615235,0 0,0.8925785 0.780273,0 0,-0.8925785 -0.780273,0 z m -1.5615235,1.7851564 0,0.892578 0.78125,0 0,-0.892578 -0.78125,0 z m 1.5615235,0 0,0.892578 0.780273,0 0,-0.892578 -0.780273,0 z m 1.560547,0 0,0.892578 0.780273,0 0,0.892578 -0.780273,0 0,0.892578 0.780273,0 0,0.892578 -0.780273,0 0,0.892578 3.1210933,0 0,-4.46289 -3.1210933,0 z m 1.560547,0.892578 0.780273,0 0,0.892578 -0.780273,0 0,-0.892578 z m -4.6826175,0.892578 0,0.892578 0.78125,0 0,-0.892578 -0.78125,0 z m 1.5615235,0 0,0.892578 0.780273,0 0,-0.892578 -0.780273,0 z m 3.121094,0.892578 0.780273,0 0,0.892578 -0.780273,0 0,-0.892578 z m -4.6826175,0.892578 0,0.892578 0.78125,0 0,-0.892578 -0.78125,0 z m 1.5615235,0 0,0.892578 0.780273,0 0,-0.892578 -0.780273,0 z"
       id="path4255"
       inkscape:connector-curvature="0"
       style="fill:#4186ff;fill-opacity:0.94117647;filter:url(#filter5825)" />
    <path
       style="fill:#ffffff;fill-opacity:0.94117647"
       d="m 6.8450282,14.909183 0,-7.9996825 3.8686988,0 3.868699,0 0,1.7704214 0,1.7704211 3.901484,0 3.901484,0 0,6.229261 0,6.229261 -7.770183,0 -7.7701828,0 0,-7.999682 z m 3.1328735,5.327657 -0.018243,-0.901604 -0.8032468,-0.01841 -0.8032467,-0.01841 0,0.920015 0,0.920014 0.8214899,0 0.82149,0 -0.018243,-0.901603 z m 3.0963873,-0.01639 0,-0.917996 -0.786854,0 -0.786854,0 0,0.917996 0,0.917996 0.786854,0 0.786854,0 0,-0.917996 z m 7.802968,-3.574265 0,-4.49226 -3.131023,0.01703 -3.131023,0.01703 -0.01824,0.901604 -0.01824,0.901603 0.788704,0 0.788705,0 0,0.885211 0,0.885211 -0.786854,0 -0.786854,0 0,0.917996 0,0.917996 0.786854,0 0.786854,0 0,0.850344 0,0.850345 -0.770462,0.01847 -0.770461,0.01847 -0.01824,0.901604 -0.01824,0.901603 3.149266,0 3.149266,0 0,-4.492261 z m -10.8848129,0.03342 0,-0.917996 -0.8196396,0 -0.8196395,0 0,0.917996 0,0.917996 0.8196395,0 0.8196396,0 0,-0.917996 z m 3.0818449,0 0,-0.917996 -0.786854,0 -0.786854,0 0,0.917996 0,0.917996 0.786854,0 0.786854,0 0,-0.917996 z M 9.9779017,13.089584 9.9596587,12.18798 9.1564119,12.16957 8.3531652,12.15116 l 0,0.920015 0,0.920014 0.8214899,0 0.82149,0 -0.018243,-0.901603 z m 3.0963873,-0.01639 0,-0.917996 -0.786854,0 -0.786854,0 0,0.917996 0,0.917996 0.786854,0 0.786854,0 0,-0.917996 z m -3.0818449,-3.5408429 0,-0.9179963 -0.8196396,0 -0.8196395,0 0,0.9179963 0,0.9179959 0.8196395,0 0.8196396,0 0,-0.9179959 z m 3.0818449,0 0,-0.9179963 -0.786854,0 -0.786854,0 0,0.9179963 0,0.9179959 0.786854,0 0.786854,0 0,-0.9179959 z"
       id="path5735"
       inkscape:connector-curvature="0"
       transform="matrix(0.5,0,0,0.5,0.01699156,3.9996789)" />
    <path
       style="fill:#ffffff;fill-opacity:0.94117647"
       d="m 6.8450282,14.909183 0,-7.9996825 3.8686988,0 3.868699,0 0,1.7704214 0,1.7704211 3.901484,0 3.901484,0 0,6.229261 0,6.229261 -7.770183,0 -7.7701828,0 0,-7.999682 z m 3.1328735,5.327657 -0.018243,-0.901604 -0.8032468,-0.01841 -0.8032467,-0.01841 0,0.920015 0,0.920014 0.8214899,0 0.82149,0 -0.018243,-0.901603 z m 3.0963873,-0.01639 0,-0.917996 -0.786854,0 -0.786854,0 0,0.917996 0,0.917996 0.786854,0 0.786854,0 0,-0.917996 z m 7.802968,-3.574265 0,-4.49226 -3.131023,0.01703 -3.131023,0.01703 -0.01824,0.901604 -0.01824,0.901603 0.788704,0 0.788705,0 0,0.885211 0,0.885211 -0.786854,0 -0.786854,0 0,0.917996 0,0.917996 0.786854,0 0.786854,0 0,0.850344 0,0.850345 -0.770462,0.01847 -0.770461,0.01847 -0.01824,0.901604 -0.01824,0.901603 3.149266,0 3.149266,0 0,-4.492261 z m -10.8848129,0.03342 0,-0.917996 -0.8196396,0 -0.8196395,0 0,0.917996 0,0.917996 0.8196395,0 0.8196396,0 0,-0.917996 z m 3.0818449,0 0,-0.917996 -0.786854,0 -0.786854,0 0,0.917996 0,0.917996 0.786854,0 0.786854,0 0,-0.917996 z M 9.9779017,13.089584 9.9596587,12.18798 9.1564119,12.16957 8.3531652,12.15116 l 0,0.920015 0,0.920014 0.8214899,0 0.82149,0 -0.018243,-0.901603 z m 3.0963873,-0.01639 0,-0.917996 -0.786854,0 -0.786854,0 0,0.917996 0,0.917996 0.786854,0 0.786854,0 0,-0.917996 z m -3.0818449,-3.5408429 0,-0.9179963 -0.8196396,0 -0.8196395,0 0,0.9179963 0,0.9179959 0.8196395,0 0.8196396,0 0,-0.9179959 z m 3.0818449,0 0,-0.9179963 -0.786854,0 -0.786854,0 0,0.9179963 0,0.9179959 0.786854,0 0.786854,0 0,-0.9179959 z"
       id="path5737"
       inkscape:connector-curvature="0"
       transform="matrix(0.5,0,0,0.5,0.01699156,3.9996789)" />
    <path
       style="fill:#ffffff;fill-opacity:0.94117647"
       d="m 6.8450282,14.909183 0,-7.9996825 3.8686988,0 3.868699,0 0,1.7704214 0,1.7704211 3.901484,0 3.901484,0 0,6.229261 0,6.229261 -7.770183,0 -7.7701828,0 0,-7.999682 z m 3.1364616,5.379984 c -0.014554,-0.467101 -0.049928,-0.872823 -0.078611,-0.901603 -0.028682,-0.02878 -0.3891016,-0.06224 -0.8009319,-0.07436 l -0.7487822,-0.02204 0,0.92364 0,0.923638 0.8273928,0 0.8273935,0 -0.026461,-0.849276 z m 3.0927992,-0.06872 0,-0.917996 -0.786854,0 -0.786854,0 0,0.917996 0,0.917996 0.786854,0 0.786854,0 0,-0.917996 z m 7.802968,-3.573629 0,-4.491624 -1.267969,0 c -0.697384,0 -2.113721,0.0195 -3.147416,0.04334 l -1.879446,0.04334 0,0.874655 0,0.874655 0.786854,0 0.786854,0 0,0.885211 0,0.885211 -0.786854,0 -0.786854,0 0,0.917996 0,0.917996 0.786854,0 0.786854,0 0,0.852425 0,0.852426 -0.581945,0 c -0.320069,0 -0.674153,0.01844 -0.786853,0.04098 l -0.20491,0.04098 0,0.877014 0,0.877014 3.147416,0 3.147415,0 0,-4.491625 z m -10.8848129,0.03279 0,-0.917996 -0.8196396,0 -0.8196395,0 0,0.917996 0,0.917996 0.8196395,0 0.8196396,0 0,-0.917996 z m 3.0818449,0 0,-0.917996 -0.786854,0 -0.786854,0 0,0.917996 0,0.917996 0.786854,0 0.786854,0 0,-0.917996 z M 9.9814898,13.141911 C 9.9669358,12.674809 9.9379928,12.275599 9.9171718,12.254778 9.8963508,12.233958 9.5359312,12.198518 9.11624,12.176028 l -0.7630749,-0.04089 0,0.928027 0,0.928027 0.8273928,0 0.8273931,0 -0.026461,-0.849275 z m 3.0927992,-0.06872 0,-0.917996 -0.786854,0 -0.786854,0 0,0.917996 0,0.917996 0.786854,0 0.786854,0 0,-0.917996 z m -3.0818449,-3.5408429 0,-0.9179963 -0.8196396,0 -0.8196395,0 0,0.9179963 0,0.9179959 0.8196395,0 0.8196396,0 0,-0.9179959 z m 3.0818449,0 0,-0.9179963 -0.786854,0 -0.786854,0 0,0.9179963 0,0.9179959 0.786854,0 0.786854,0 0,-0.9179959 z"
       id="path5739"
       inkscape:connector-curvature="0"
       transform="matrix(0.5,0,0,0.5,0.01699156,3.9996789)" />
    <path
       style="fill:#ffffff;fill-opacity:0.94117647"
       d="m 6.8450282,14.909183 0,-7.9996825 3.8686988,0 3.868699,0 0,1.7704214 0,1.7704211 3.901484,0 3.901484,0 0,6.229261 0,6.229261 -7.770183,0 -7.7701828,0 0,-7.999682 z m 3.1186927,5.360724 c -0.025968,-0.477696 -0.054282,-0.875605 -0.062919,-0.884243 -0.00864,-0.0086 -0.36039,-0.03539 -0.7816709,-0.05945 l -0.7659655,-0.04375 0,0.92799 0,0.927989 0.828885,0 0.8288845,0 -0.047213,-0.868536 z m 3.1105681,-0.04946 0,-0.917996 -0.786854,0 -0.786854,0 0,0.917996 0,0.917996 0.786854,0 0.786854,0 0,-0.917996 z m 7.802968,-3.581211 0,-4.499206 -3.098237,0.04795 c -1.704031,0.02637 -3.120368,0.06103 -3.147416,0.07702 -0.02705,0.01599 -0.04918,0.410925 -0.04918,0.877631 l 0,0.848555 0.786854,0 0.786854,0 0,0.885211 0,0.885211 -0.786854,0 -0.786854,0 0,0.917996 0,0.917996 0.786854,0 0.786854,0 0,0.842602 0,0.842602 -0.720066,0.03799 c -0.396036,0.02089 -0.75012,0.05656 -0.786854,0.07926 -0.03977,0.02458 -0.06679,0.384548 -0.06679,0.889833 l 0,0.848555 3.147416,0 3.147415,0 0,-4.499207 z m -10.8848129,0.04037 0,-0.917996 -0.8196396,0 -0.8196395,0 0,0.917996 0,0.917996 0.8196395,0 0.8196396,0 0,-0.917996 z m 3.0818449,0 0,-0.917996 -0.786854,0 -0.786854,0 0,0.917996 0,0.917996 0.786854,0 0.786854,0 0,-0.917996 z M 9.9663115,13.124679 c -0.02516,-0.476578 -0.051703,-0.871439 -0.058985,-0.877468 -0.00728,-0.006 -0.3599471,-0.03211 -0.7837008,-0.05796 l -0.7704611,-0.047 0,0.924464 0,0.924465 0.8294457,0 0.8294457,0 -0.045744,-0.866507 z m 3.1079775,-0.05149 0,-0.917996 -0.786854,0 -0.786854,0 0,0.917996 0,0.917996 0.786854,0 0.786854,0 0,-0.917996 z m -3.0818449,-3.5408429 0,-0.9179963 -0.8196396,0 -0.8196395,0 0,0.9179963 0,0.9179959 0.8196395,0 0.8196396,0 0,-0.9179959 z m 3.0818449,0 0,-0.9179963 -0.786854,0 -0.786854,0 0,0.9179963 0,0.9179959 0.786854,0 0.786854,0 0,-0.9179959 z"
       id="path5743"
       inkscape:connector-curvature="0"
       transform="matrix(0.5,0,0,0.5,0.01699156,3.9996789)" />
    <path
       style="fill:#ffffff;fill-opacity:0.94117647"
       d="m 6.8450282,14.909183 0,-7.9996825 3.8686988,0 3.868699,0 0,1.7704214 0,1.7704211 3.901484,0 3.901484,0 0,6.229261 0,6.229261 -7.770183,0 -7.7701828,0 0,-7.999682 z m 3.1103614,5.360442 c -0.025118,-0.47785 -0.049186,-0.87271 -0.053486,-0.877468 -0.0043,-0.0048 -0.3545243,-0.0298 -0.778278,-0.05565 l -0.7704611,-0.047 0,0.924465 0,0.924465 0.8239468,0 0.8239467,0 -0.045668,-0.868818 z m 3.1188994,-0.04918 0,-0.917996 -0.786854,0 -0.786854,0 0,0.917996 0,0.917996 0.786854,0 0.786854,0 0,-0.917996 z m 7.802968,-3.575227 0,-4.493222 -3.098237,0.04343 c -1.704031,0.02389 -3.112991,0.05655 -3.131023,0.07257 -0.01803,0.01603 -0.04313,0.410297 -0.05576,0.876159 l -0.02298,0.847021 0.793439,0 0.793439,0 0,0.885211 0,0.885211 -0.786854,0 -0.786854,0 0,0.917996 0,0.917996 0.786854,0 0.786854,0 0,0.844563 0,0.844564 -0.747079,0.04668 -0.747078,0.04668 -0.03978,0.198878 c -0.02188,0.109382 -0.03978,0.505013 -0.03978,0.879178 l 0,0.680301 3.147416,0 3.147415,0 0,-4.493223 z m -10.8848129,0.03438 0,-0.917996 -0.8196396,0 -0.8196395,0 0,0.917996 0,0.917996 0.8196395,0 0.8196396,0 0,-0.917996 z m 3.0818449,0 0,-0.917996 -0.786854,0 -0.786854,0 0,0.917996 0,0.917996 0.786854,0 0.786854,0 0,-0.917996 z m -3.1167201,-3.55723 c -0.025719,-0.47785 -0.050524,-0.872104 -0.055122,-0.87612 -0.0046,-0.004 -0.3550672,-0.02506 -0.7788209,-0.04677 l -0.7704611,-0.03947 0,0.915592 0,0.915591 0.825583,0 0.8255831,0 -0.046762,-0.868818 z m 3.1167201,-0.04918 0,-0.917996 -0.786854,0 -0.786854,0 0,0.917996 0,0.917996 0.786854,0 0.786854,0 0,-0.917996 z m -3.0818449,-3.5408429 0,-0.9179963 -0.8196396,0 -0.8196395,0 0,0.9179963 0,0.9179959 0.8196395,0 0.8196396,0 0,-0.9179959 z m 3.0818449,0 0,-0.9179963 -0.786854,0 -0.786854,0 0,0.9179963 0,0.9179959 0.786854,0 0.786854,0 0,-0.9179959 z"
       id="path5745"
       inkscape:connector-curvature="0"
       transform="matrix(0.5,0,0,0.5,0.01699156,3.9996789)" />
    <path
       style="fill:#ffffff;fill-opacity:0.94117647"
       d="m 6.8450282,14.909183 0,-7.9996825 3.8686988,0 3.868699,0 0,1.7704214 0,1.7704211 3.901484,0 3.901484,0 0,6.229261 0,6.229261 -7.770183,0 -7.7701828,0 0,-7.999682 z m 3.1057839,5.360442 c -0.023181,-0.47785 -0.045428,-0.872196 -0.049436,-0.876324 -0.00401,-0.0041 -0.3539961,-0.02746 -0.7777498,-0.05185 l -0.7704611,-0.04434 0,0.92067 0,0.92067 0.8198973,0 0.8198974,0 -0.042148,-0.868818 z m 3.1234769,-0.04918 0,-0.917996 -0.786854,0 -0.786854,0 0,0.917996 0,0.917996 0.786854,0 0.786854,0 0,-0.917996 z m 7.802968,-3.567048 0,-4.485045 -3.098237,0.03482 c -1.704031,0.01915 -3.106379,0.04155 -3.116329,0.04976 -0.01,0.0082 -0.03664,0.40268 -0.05931,0.876591 l -0.04121,0.861654 0.796983,0 0.796983,0 0,0.885211 0,0.885211 -0.786854,0 -0.786854,0 0,0.917996 0,0.917996 0.786854,0 0.786854,0 0,0.842804 0,0.842803 -0.501678,0.04241 c -0.275922,0.02332 -0.611142,0.04241 -0.744935,0.04241 l -0.243257,0 -0.04135,0.344248 c -0.02274,0.189337 -0.04161,0.587682 -0.04192,0.885211 l -5.69e-4,0.540962 3.147416,0 3.147415,0 0,-4.485044 z m -10.8848129,0.02621 0,-0.917996 -0.8196396,0 -0.8196395,0 0,0.917996 0,0.917996 0.8196395,0 0.8196396,0 0,-0.917996 z m 3.0818449,0 0,-0.917996 -0.786854,0 -0.786854,0 0,0.917996 0,0.917996 0.786854,0 0.786854,0 0,-0.917996 z M 9.9508121,13.122368 c -0.023181,-0.47785 -0.045428,-0.872868 -0.049436,-0.877819 -0.00401,-0.005 -0.3466193,-0.0197 -0.761357,-0.03279 l -0.7540684,-0.02378 -0.018243,0.901604 -0.018243,0.901603 0.8217477,0 0.8217478,0 -0.042148,-0.868818 z m 3.1234769,-0.04918 0,-0.917996 -0.786854,0 -0.786854,0 0,0.917996 0,0.917996 0.786854,0 0.786854,0 0,-0.917996 z m -3.0818449,-3.5408429 0,-0.9179963 -0.8196396,0 -0.8196395,0 0,0.9179963 0,0.9179959 0.8196395,0 0.8196396,0 0,-0.9179959 z m 3.0818449,0 0,-0.9179963 -0.786854,0 -0.786854,0 0,0.9179963 0,0.9179959 0.786854,0 0.786854,0 0,-0.9179959 z"
       id="path5747"
       inkscape:connector-curvature="0"
       transform="matrix(0.5,0,0,0.5,0.01699156,3.9996789)" />
    <path
       style="fill:#ffffff;fill-opacity:0.94117647"
       d="m 17.775853,14.876238 0,-0.885211 0.754068,0 0.754069,0 0,0.885211 0,0.88521 -0.754069,0 -0.754068,0 0,-0.88521 z"
       id="path5797"
       inkscape:connector-curvature="0"
       transform="matrix(0.5,0,0,0.5,0.01699156,3.9996789)" />
    <path
       style="fill:#ffffff;fill-opacity:0.94117647"
       d="m 17.775853,18.449866 0,-0.852425 0.754068,0 0.754069,0 0,0.852425 0,0.852425 -0.754069,0 -0.754068,0 0,-0.852425 z"
       id="path5799"
       inkscape:connector-curvature="0"
       transform="matrix(0.5,0,0,0.5,0.01699156,3.9996789)" />
  </g>
</svg>
