<?xml version="1.0" encoding="UTF-8" standalone="no"?>
<svg
   xmlns:dc="http://purl.org/dc/elements/1.1/"
   xmlns:cc="http://creativecommons.org/ns#"
   xmlns:rdf="http://www.w3.org/1999/02/22-rdf-syntax-ns#"
   xmlns:svg="http://www.w3.org/2000/svg"
   xmlns="http://www.w3.org/2000/svg"
   xmlns:sodipodi="http://sodipodi.sourceforge.net/DTD/sodipodi-0.dtd"
   xmlns:inkscape="http://www.inkscape.org/namespaces/inkscape"
   height="48.000004"
   viewBox="0 0 16.799999 24.000002"
   width="33.599998"
   id="svg2"
   version="1.1"
   inkscape:version="0.91 r13725"
   sodipodi:docname="ic3.svg"
   style="fill:#000000;enable-background:new">
  <metadata
     id="metadata12">
    <rdf:RDF>
      <cc:Work
         rdf:about="">
        <dc:format>image/svg+xml</dc:format>
        <dc:type
           rdf:resource="http://purl.org/dc/dcmitype/StillImage" />
        <dc:title></dc:title>
      </cc:Work>
    </rdf:RDF>
  </metadata>
  <defs
     id="defs10">
    <filter
       style="color-interpolation-filters:sRGB"
       inkscape:label="Drop Shadow"
       id="filter6692">
      <feFlood
         flood-opacity="0.498039"
         flood-color="rgb(0,0,0)"
         result="flood"
         id="feFlood6694" />
      <feComposite
         in="flood"
         in2="SourceGraphic"
         operator="in"
         result="composite1"
         id="feComposite6696" />
      <feGaussianBlur
         in="composite1"
         stdDeviation="1"
         result="blur"
         id="feGaussianBlur6698" />
      <feOffset
         dx="1"
         dy="1"
         result="offset"
         id="feOffset6700" />
      <feComposite
         in="SourceGraphic"
         in2="offset"
         operator="over"
         result="composite2"
         id="feComposite6702" />
    </filter>
    <filter
       style="color-interpolation-filters:sRGB;"
       inkscape:label="Drop Shadow"
       id="filter6884">
      <feFlood
         flood-opacity="0.498039"
         flood-color="rgb(0,0,0)"
         result="flood"
         id="feFlood6886" />
      <feComposite
         in="flood"
         in2="SourceGraphic"
         operator="in"
         result="composite1"
         id="feComposite6888" />
      <feGaussianBlur
         in="composite1"
         stdDeviation="16.7"
         result="blur"
         id="feGaussianBlur6890" />
      <feOffset
         dx="22.5"
         dy="16.1"
         result="offset"
         id="feOffset6892" />
      <feComposite
         in="SourceGraphic"
         in2="offset"
         operator="over"
         result="composite2"
         id="feComposite6894" />
    </filter>
  </defs>
  <sodipodi:namedview
     pagecolor="#ffffff"
     bordercolor="#666666"
     borderopacity="1"
     objecttolerance="10"
     gridtolerance="10"
     guidetolerance="10"
     inkscape:pageopacity="0"
     inkscape:pageshadow="2"
     inkscape:window-width="1847"
     inkscape:window-height="1053"
     id="namedview8"
     showgrid="false"
     inkscape:zoom="17.770833"
     inkscape:cx="4.3333714"
     inkscape:cy="23.566209"
     inkscape:window-x="73"
     inkscape:window-y="27"
     inkscape:window-maximized="1"
     inkscape:current-layer="g4368"
     fit-margin-top="0"
     fit-margin-left="0"
     fit-margin-right="0"
     fit-margin-bottom="0" />
  <path
     d="m 0.21123443,39.34115 23.99999957,0 0,24 -23.99999957,0 z"
     id="path6"
     inkscape:connector-curvature="0"
     style="fill:none" />
  <g
     inkscape:groupmode="layer"
     id="layer1"
     inkscape:label="Layer 1"
     style="display:inline;opacity:1"
     transform="translate(0.21123443,39.34115)">
    <g
       style="display:block;fill:#db4436;fill-opacity:1;filter:url(#filter6692);enable-background:new;opacity:1"
       id="g4368"
       transform="matrix(0.02999897,0,0,0.03000067,1.7676914,-36.553162)"
       clip-path="none">
      <g
         id="svgg"
         style="fill:#db4436;fill-opacity:1;filter:url(#filter6884)">
        <path
           id="path0"
           style="fill:#db4436;fill-opacity:1;fill-rule:evenodd;stroke:none"
           d="m 207.031,5.438 c -7.09,2.926 -22.789,9.324 -34.886,14.219 l -21.996,8.9 7.039,17.557 c 3.872,9.657 7.28,17.818 7.574,18.136 0.854,0.924 71.604,-28.103 71.336,-29.267 -1.207,-5.239 -13.939,-34.973 -14.955,-34.924 -0.671,0.032 -7.022,2.453 -14.112,5.379 m -0.259,61.753 c -19.264,7.66 -35.169,14.071 -35.345,14.247 -0.176,0.176 1.61,4.989 3.97,10.695 4.576,11.065 4.948,12.555 3.14,12.555 -4.974,0 -29.301,10.328 -40.037,16.998 -83.778,52.049 -96.854,165.733 -27.048,235.15 l 9.624,9.57 -27.335,0 -27.335,0 0,16.797 0,16.797 150.391,0 150.391,0 0,-16.797 0,-16.797 -75.977,-0.002 c -81.891,-0.003 -88.178,-0.244 -102.825,-3.944 -10.659,-2.692 -11.263,-3.12 -7.596,-5.386 9.266,-5.726 17.874,-21.255 19.068,-34.398 l 0.533,-5.863 71.093,-29.046 c 39.102,-15.976 71.548,-29.339 72.104,-29.696 1.085,-0.698 -9.587,-28.283 -11.166,-28.862 -0.43,-0.158 -32.372,12.63 -70.982,28.416 l -70.201,28.703 -5.971,-5.859 c -20.983,-20.591 -56.861,-18.308 -75.11,4.778 l -2.931,3.708 -1.664,-5.61 c -10.163,-34.277 -3.929,-71.553 16.85,-100.742 15.747,-22.121 51.848,-45.884 69.708,-45.884 0.999,0 3.303,4.948 9.43,20.245 l 8.108,20.245 3.569,-1.407 c 18.552,-7.314 66.158,-26.751 66.598,-27.192 0.857,-0.859 -35.722,-95.072 -36.97,-95.22 -0.583,-0.069 -16.82,6.142 -36.084,13.801 m 44.613,112.374 c -18.789,8.069 -34.39,14.898 -34.669,15.177 -0.279,0.279 1.001,4.258 2.843,8.843 l 3.35,8.335 11.316,5.382 c 15.226,7.242 12.334,7.322 31.507,-0.877 19.826,-8.479 17.299,-6.28 24.149,-21.013 l 5.583,-12.011 -4.133,-9.279 c -2.273,-5.103 -4.504,-9.267 -4.958,-9.252 -0.455,0.014 -16.199,6.627 -34.988,14.695 m -94.524,122.43 c 11.239,4.695 12.64,21.475 2.36,28.278 -7.372,4.878 -19.488,2.168 -23.247,-5.202 -7.401,-14.506 5.989,-29.3 20.887,-23.076 m 57.18215,-328.26068 c -129.00443,0 -233.341343,104.331003 -233.341343,233.32812 0,174.99609 233.341343,433.32366 233.341343,433.32366 0,0 233.34133,-258.32757 233.34133,-433.32366 0,-128.997117 -104.33692,-233.32812 -233.34133,-233.32812 z"
           inkscape:connector-curvature="0" />
      </g>
    </g>
    <path
       style="fill:#ffffff;fill-opacity:0.94117647"
       d="m 5.1460328,24.547276 0,-0.98476 1.6380131,0 1.6380131,0 -0.465077,-0.491322 C 6.9991013,22.05926 6.5147433,21.38144 6.0465787,20.397738 5.2073657,18.634396 4.9636544,16.681809 5.3471076,14.793658 5.5779249,13.657098 6.1570834,12.320866 6.825348,11.383072 7.5082903,10.42468 8.7167055,9.3261828 9.6851568,8.7833935 10.166404,8.5136684 11.35401,8.000589 11.696986,7.9142266 11.838863,7.8785019 11.954165,7.8206257 11.953214,7.7856128 11.952263,7.7506 11.841761,7.4435848 11.707654,7.1033568 L 11.463822,6.4847604 11.807858,6.3382818 c 0.856897,-0.3648366 3.68514,-1.45722 3.808336,-1.4709354 0.129601,-0.014429 0.169748,0.066381 0.733271,1.4759432 0.546808,1.3677518 1.453247,3.7430584 1.538407,4.0313684 0.02834,0.09595 0.0037,0.132281 -0.121006,0.178516 -0.08612,0.03193 -1.002158,0.401868 -2.035632,0.82209 -1.033474,0.420222 -1.907097,0.763836 -1.941384,0.763587 -0.03429,-2.25e-4 -0.199491,-0.348431 -0.367121,-0.773739 -0.167629,-0.425309 -0.389366,-0.9604 -0.492748,-1.189094 L 12.742013,9.7602115 12.4448,9.7908865 C 11.259059,9.9132658 9.0411408,11.553077 8.2245534,12.911113 7.1789766,14.649972 6.9141183,16.679285 7.4790938,18.622732 l 0.091992,0.31644 0.4334291,-0.433521 c 0.6339179,-0.634052 1.2824426,-0.907965 2.1497241,-0.907965 0.812847,0 1.493406,0.271125 2.090635,0.832878 l 0.376958,0.354566 2.29727,-0.939006 c 4.935881,-2.017533 6.172664,-2.500378 6.219247,-2.428018 0.08677,0.134786 0.550935,1.365501 0.565258,1.498767 0.01723,0.16026 0.447871,-0.02992 -4.79673,2.118262 l -3.742087,1.532751 -0.03473,0.301536 c -0.09538,0.828225 -0.585383,1.761791 -1.087635,2.0722 -0.110017,0.06799 -0.20003,0.144847 -0.20003,0.170785 0,0.05581 0.380478,0.18578 0.928487,0.317169 0.349418,0.08378 0.957924,0.09699 5.388043,0.116998 l 4.994138,0.02256 0,0.981453 0,0.981453 -9.003517,0 -9.0035168,0 0,-0.98476 z m 5.5486862,-3.117508 c 0.51997,-0.317071 0.605363,-1.106872 0.167064,-1.545171 -0.622359,-0.622359 -1.6771534,-0.179988 -1.6771534,0.703384 0,0.58475 0.3806802,0.946301 0.9977454,0.947608 0.233256,5.06e-4 0.391643,-0.03222 0.512344,-0.105821 z"
       id="path6498"
       inkscape:connector-curvature="0"
       transform="matrix(0.5,0,0,0.5,1.1887655,-37.34115)" />
    <path
       style="fill:#ffffff;fill-opacity:0.94117647"
       d="M 15.218718,14.591891 14.57159,14.287917 14.384461,13.827975 c -0.102921,-0.252968 -0.175638,-0.489886 -0.161594,-0.526485 0.02479,-0.06459 3.968604,-1.781178 4.092212,-1.781178 0.03391,0 0.170581,0.234232 0.303709,0.520516 l 0.242052,0.520516 -0.125391,0.28136 c -0.396619,0.889958 -0.554804,1.167713 -0.723927,1.271133 -0.356096,0.217754 -1.767677,0.782786 -1.954649,0.782411 -0.113098,-2.26e-4 -0.455023,-0.124388 -0.838155,-0.304357 z"
       id="path6500"
       inkscape:connector-curvature="0"
       transform="matrix(0.5,0,0,0.5,1.1887655,-37.34115)" />
    <path
       style="fill:#ffffff;fill-opacity:0.94117647"
       d="M 11.030523,5.3369761 C 10.909282,5.140804 10.217885,3.3315714 10.251983,3.2997092 c 0.03764,-0.035172 1.951028,-0.8197139 3.585302,-1.4700725 0.522086,-0.2077638 0.564792,-0.2162114 0.631544,-0.1249231 0.08568,0.11718 0.72526,1.622678 0.777033,1.829058 0.03374,0.1345173 0.0092,0.1570831 -0.347115,0.3188916 -0.865988,0.3932793 -3.676852,1.5340027 -3.779945,1.5340027 -0.03166,0 -0.07139,-0.02236 -0.08828,-0.04969 z"
       id="path6502"
       inkscape:connector-curvature="0"
       transform="matrix(0.5,0,0,0.5,1.1887655,-37.34115)" />
    <path
       style="fill:#ffffff;fill-opacity:0.94117647"
       d="m 5.1460328,24.547276 0,-0.98476 1.6396427,0 1.6396428,0 -0.4448842,-0.464244 C 7.3696595,22.460919 6.9812429,21.985673 6.6241306,21.43877 3.692006,16.948342 5.3574483,10.910675 10.182375,8.5391951 c 0.433294,-0.2129666 1.003048,-0.4571353 1.26612,-0.5425969 0.263071,-0.085462 0.48846,-0.1628239 0.500863,-0.1719159 0.02183,-0.016001 -0.140446,-0.4737793 -0.377741,-1.0656068 l -0.11532,-0.2876138 0.601023,-0.239169 c 2.460087,-0.9789593 3.588135,-1.4077881 3.645413,-1.3858087 0.06846,0.02627 1.13504,2.6699367 1.784429,4.4229487 0.455769,1.2303403 0.452219,1.2181143 0.363948,1.2536353 -0.03961,0.01594 -0.956025,0.386113 -2.036479,0.822608 -1.080455,0.436495 -1.992061,0.793227 -2.025792,0.792738 -0.03373,-5.07e-4 -0.210102,-0.373996 -0.391935,-0.830012 -0.181834,-0.456017 -0.401817,-0.987387 -0.488851,-1.180822 -0.148121,-0.3291998 -0.17017,-0.3516513 -0.344657,-0.3509466 -0.253175,0.00102 -1.020409,0.2743266 -1.458975,0.5197156 -1.1340764,0.634546 -2.3211401,1.71847 -2.876528,2.626598 -0.4006878,0.655175 -0.7283377,1.482863 -0.8926841,2.255044 -0.1459549,0.685768 -0.1743965,1.972431 -0.057219,2.588511 0.066166,0.347877 0.2774858,1.12544 0.3058633,1.12544 0.00735,0 0.2025241,-0.183798 0.433725,-0.40844 0.6301816,-0.612304 1.2899157,-0.885816 2.1366608,-0.885816 0.815612,0 1.493401,0.268441 2.083622,0.825225 l 0.382315,0.360657 2.776411,-1.133407 c 2.975132,-1.21453 5.181065,-2.103226 5.514801,-2.221728 l 0.206153,-0.0732 0.193585,0.46003 c 0.324228,0.770481 0.454563,1.166607 0.400995,1.218733 -0.0608,0.05917 -0.741539,0.34298 -5.142876,2.14419 l -3.404455,1.393243 -0.03927,0.346292 c -0.04989,0.439987 -0.123273,0.667037 -0.368041,1.138767 -0.194107,0.37409 -0.560335,0.816079 -0.769029,0.928115 -0.201611,0.108233 -0.05526,0.220981 0.453982,0.349753 0.770918,0.194941 1.576715,0.223822 6.307349,0.226069 l 4.403283,0.0021 0,0.98476 0,0.98476 -9.003517,0 -9.0035174,0 0,-0.98476 z m 5.4931902,-3.101897 c 0.371897,-0.176476 0.583568,-0.674695 0.468385,-1.102453 -0.107571,-0.399489 -0.313361,-0.599203 -0.742349,-0.720428 -0.3877308,-0.109566 -0.885443,0.124939 -1.0852567,0.511336 -0.1242056,0.240187 -0.1050349,0.700143 0.039932,0.958077 0.2239809,0.39852 0.8633547,0.569823 1.3192887,0.353468 z"
       id="path6504"
       inkscape:connector-curvature="0"
       transform="matrix(0.5,0,0,0.5,1.1887655,-37.34115)" />
    <path
       style="fill:#ffffff;fill-opacity:0.94117647"
       d="m 5.1460328,24.547276 0,-0.98476 1.6371821,0 1.6371821,0 -0.5869523,-0.616875 C 6.5575203,21.60467 5.7264403,20.096736 5.3786886,18.491666 4.8561295,16.079761 5.3202755,13.635206 6.6920074,11.574703 7.2846225,10.684526 8.2827571,9.6973502 9.2486171,9.0461635 9.6866538,8.7508374 10.806439,8.2113835 11.420359,7.9999321 c 0.247596,-0.085279 0.470335,-0.1724833 0.494973,-0.1937866 0.02464,-0.021303 -0.0094,-0.1755736 -0.07559,-0.3428227 -0.06621,-0.1672492 -0.17904,-0.459278 -0.250722,-0.6489531 L 11.458684,6.4695061 12.339873,6.118156 c 2.248005,-0.8963308 3.30242,-1.294865 3.363676,-1.2713588 0.109889,0.042168 2.270313,5.5690148 2.203159,5.6361698 -0.05265,0.05265 -4.029549,1.656362 -4.106078,1.655804 -0.04136,-2.81e-4 -0.218344,-0.360813 -0.407472,-0.830012 -0.183894,-0.456213 -0.405962,-0.991212 -0.493485,-1.188886 L 12.740541,9.7604659 12.463023,9.7933338 C 11.367917,9.9230329 9.3390538,11.338544 8.4552847,12.58948 c -0.5546843,0.785131 -1.0284299,1.95565 -1.1729135,2.898007 -0.1469103,0.958184 -0.065365,2.2155 0.2021047,3.116168 l 0.088103,0.296674 0.4329254,-0.412165 c 0.6500475,-0.618877 1.3054255,-0.890478 2.1487347,-0.890478 0.824026,0 1.486833,0.262244 2.082115,0.823804 l 0.38011,0.358576 2.215547,-0.905216 c 3.481013,-1.422254 6.251305,-2.534716 6.266783,-2.516543 0.12929,0.151802 0.663534,1.553643 0.627691,1.647045 -0.02848,0.07421 -0.07949,0.09574 -5.01656,2.117174 l -3.545135,1.451523 -0.03927,0.344982 c -0.07858,0.690346 -0.414444,1.386586 -0.901289,1.868343 -0.17906,0.177188 -0.325563,0.332381 -0.325563,0.344873 0,0.03802 0.289683,0.139461 0.673014,0.235683 0.584813,0.146797 2.069754,0.191146 6.459459,0.192921 l 4.121923,0.0017 0,0.98476 0,0.98476 -9.003517,0 -9.0035171,0 0,-0.98476 z M 10.66046,21.417547 c 0.283501,-0.159336 0.461757,-0.484864 0.45902,-0.838252 -0.0045,-0.580932 -0.389756,-0.955818 -0.982261,-0.955818 -0.3324455,0 -0.5840126,0.128981 -0.787539,0.403781 -0.1367319,0.184613 -0.1875357,0.640626 -0.1006885,0.903776 0.1733644,0.5253 0.8980305,0.775081 1.4114685,0.486513 z"
       id="path6506"
       inkscape:connector-curvature="0"
       transform="matrix(0.5,0,0,0.5,1.1887655,-37.34115)" />
    <path
       style="fill:#ffffff;fill-opacity:0.94117647"
       d="m 5.1460328,24.547276 0,-0.98476 1.6371821,0 1.6371821,0 -0.5869523,-0.616875 C 7.1019225,22.176825 6.594846,21.474468 6.1585906,20.625782 4.6596961,17.709847 4.8627399,14.340136 6.7054551,11.550026 7.1838375,10.825693 8.3328241,9.6687686 9.0747387,9.1643733 9.6366647,8.7823443 10.705482,8.2488488 11.392223,8.0076106 c 0.232122,-0.08154 0.452729,-0.1590136 0.490239,-0.1721642 0.07122,-0.02497 0.02674,-0.1799024 -0.285683,-0.9950689 L 11.453006,6.4652496 13.020354,5.8433072 c 2.311251,-0.9171321 2.651158,-1.0392513 2.71499,-0.9754195 0.101991,0.1019914 2.184429,5.4199283 2.184429,5.5783933 0,0.05403 -0.05916,0.07941 -2.317041,0.993889 -0.949402,0.384524 -1.759718,0.699064 -1.800703,0.698979 -0.04335,-1.12e-4 -0.225577,-0.370831 -0.435634,-0.886284 -0.576901,-1.4156361 -0.607583,-1.4769844 -0.738697,-1.4769844 -0.431425,0 -1.427724,0.4351864 -2.175768,0.9503824 -1.6531773,1.13858 -2.5726183,2.395904 -3.0367732,4.152745 -0.1196864,0.453017 -0.1506319,0.718986 -0.1722786,1.480694 -0.027243,0.95862 0.037658,1.55625 0.2432023,2.239485 l 0.089681,0.298102 0.4315306,-0.410646 c 0.6498342,-0.618383 1.2974965,-0.888957 2.1278639,-0.888957 0.85205,0 1.49396,0.250966 2.097026,0.819868 l 0.381719,0.360094 1.935468,-0.791215 c 3.486006,-1.425071 6.534217,-2.645801 6.554935,-2.625084 0.04971,0.04971 0.362051,0.785102 0.504905,1.188769 0.141576,0.400056 0.148184,0.450087 0.06726,0.509259 -0.07724,0.05648 -2.097255,0.893693 -7.239866,3.000634 -0.662285,0.271339 -1.223058,0.531015 -1.246163,0.577057 -0.0231,0.04604 -0.0687,0.2604 -0.101315,0.476352 -0.08574,0.567675 -0.444563,1.264457 -0.862027,1.673954 -0.180636,0.177188 -0.328429,0.334724 -0.328429,0.35008 0,0.05271 0.759861,0.257206 1.181711,0.31803 0.262158,0.0378 2.250028,0.07203 5.247363,0.09036 l 4.825322,0.02951 0,0.978345 0,0.978346 -9.003517,0 -9.0035168,0 0,-0.98476 z m 5.5591922,-3.161228 c 0.08383,-0.06209 0.211608,-0.199195 0.283955,-0.304673 0.111386,-0.162392 0.128228,-0.245576 0.109916,-0.542872 -0.03385,-0.549479 -0.325427,-0.858928 -0.850351,-0.902459 -0.3748029,-0.03108 -0.6562242,0.08867 -0.8714219,0.370808 -0.1300072,0.170448 -0.1515716,0.252797 -0.1515716,0.578811 0,0.45373 0.1029321,0.630722 0.4816061,0.828128 0.3078214,0.16047 0.7607714,0.147876 0.9978674,-0.02774 z"
       id="path6510"
       inkscape:connector-curvature="0"
       transform="matrix(0.5,0,0,0.5,1.1887655,-37.34115)" />
  </g>
</svg>
